<svg xmlns="http://www.w3.org/2000/svg" width="900" height="450" viewBox="0 0 900 450" role="img" aria-label="Casos de polio por VP1 salvaje">
<defs>
 <filter id="shadow" x="-20%" y="-20%" width="140%" height="140%"><feDropShadow dx="0" dy="7" stdDeviation="10" flood-opacity=".10"/></filter>
 <linearGradient id="g1" x1="0" x2="1"><stop offset="0" stop-color="#0ea5b7"/><stop offset="1" stop-color="#7c6cf2"/></linearGradient>
 <pattern id="dots" width="12" height="12" patternUnits="userSpaceOnUse"><circle cx="3" cy="3" r="2" fill="#80cbb7" opacity=".8"/></pattern>
 <pattern id="dry" width="12" height="12" patternUnits="userSpaceOnUse"><path d="M0 12L12 0" stroke="#d0ad67" stroke-width="3" opacity=".55"/></pattern>
</defs>
<rect x="0" y="0" width="900" height="450" rx="24" fill="#f7fbfd"/>
<text x="40" y="45" font-family="Arial" font-size="24" font-weight="800" fill="#183247">Casos de polio por VP1 salvaje · 2018–2023</text><line x1="90" y1="390.0" x2="800" y2="390.0" stroke="#dbe7ef" stroke-width="1"/><text x="78" y="395.0" text-anchor="end" font-family="Arial" font-size="12" fill="#62788a">0</text><line x1="90" y1="340.0" x2="800" y2="340.0" stroke="#dbe7ef" stroke-width="1"/><text x="78" y="345.0" text-anchor="end" font-family="Arial" font-size="12" fill="#62788a">30</text><line x1="90" y1="290.0" x2="800" y2="290.0" stroke="#dbe7ef" stroke-width="1"/><text x="78" y="295.0" text-anchor="end" font-family="Arial" font-size="12" fill="#62788a">60</text><line x1="90" y1="240.0" x2="800" y2="240.0" stroke="#dbe7ef" stroke-width="1"/><text x="78" y="245.0" text-anchor="end" font-family="Arial" font-size="12" fill="#62788a">90</text><line x1="90" y1="190.0" x2="800" y2="190.0" stroke="#dbe7ef" stroke-width="1"/><text x="78" y="195.0" text-anchor="end" font-family="Arial" font-size="12" fill="#62788a">120</text><line x1="90" y1="140.0" x2="800" y2="140.0" stroke="#dbe7ef" stroke-width="1"/><text x="78" y="145.0" text-anchor="end" font-family="Arial" font-size="12" fill="#62788a">150</text><line x1="90" y1="90.0" x2="800" y2="90.0" stroke="#dbe7ef" stroke-width="1"/><text x="78" y="95.0" text-anchor="end" font-family="Arial" font-size="12" fill="#62788a">180</text><line x1="90" y1="90" x2="90" y2="390" stroke="#9fb1bf"/><line x1="90" y1="390" x2="800" y2="390" stroke="#9fb1bf"/><text transform="translate(30,240.0) rotate(-90)" text-anchor="middle" font-family="Arial" font-size="13" fill="#62788a">Casos</text><rect x="119.6" y="370.0" width="59.2" height="20.0" rx="5" fill="#7c6cf2"/><rect x="119.6" y="335.0" width="59.2" height="35.0" rx="5" fill="#0ea5b7"/><text x="149.2" y="415" text-anchor="middle" font-family="Arial" font-size="12" fill="#62788a">2018</text><rect x="237.9" y="341.7" width="59.2" height="48.3" rx="5" fill="#7c6cf2"/><rect x="237.9" y="96.7" width="59.2" height="245.0" rx="5" fill="#0ea5b7"/><text x="267.5" y="415" text-anchor="middle" font-family="Arial" font-size="12" fill="#62788a">2019</text><rect x="356.2" y="296.7" width="59.2" height="93.3" rx="5" fill="#7c6cf2"/><rect x="356.2" y="156.7" width="59.2" height="140.0" rx="5" fill="#0ea5b7"/><text x="385.8" y="415" text-anchor="middle" font-family="Arial" font-size="12" fill="#62788a">2020</text><rect x="474.6" y="383.3" width="59.2" height="6.7" rx="5" fill="#7c6cf2"/><rect x="474.6" y="381.7" width="59.2" height="1.7" rx="5" fill="#0ea5b7"/><text x="504.2" y="415" text-anchor="middle" font-family="Arial" font-size="12" fill="#62788a">2021</text><rect x="592.9" y="386.7" width="59.2" height="3.3" rx="5" fill="#7c6cf2"/><rect x="592.9" y="353.3" width="59.2" height="33.3" rx="5" fill="#0ea5b7"/><text x="622.5" y="415" text-anchor="middle" font-family="Arial" font-size="12" fill="#62788a">2022</text><rect x="711.2" y="380.0" width="59.2" height="10.0" rx="5" fill="#7c6cf2"/><rect x="711.2" y="370.0" width="59.2" height="10.0" rx="5" fill="#0ea5b7"/><text x="740.8" y="415" text-anchor="middle" font-family="Arial" font-size="12" fill="#62788a">2023</text><rect x="610" y="50" width="14" height="14" rx="3" fill="#7c6cf2"/><text x="632" y="62" font-family="Arial" font-size="12" fill="#62788a">Afganistán</text><rect x="710" y="50" width="14" height="14" rx="3" fill="#0ea5b7"/><text x="732" y="62" font-family="Arial" font-size="12" fill="#62788a">Pakistán</text>
</svg>