<svg xmlns="http://www.w3.org/2000/svg" width="900" height="450" viewBox="0 0 900 450" role="img" aria-label="Resultados del estudio de acupuntura y rizatriptán">
<defs>
 <filter id="shadow" x="-20%" y="-20%" width="140%" height="140%"><feDropShadow dx="0" dy="7" stdDeviation="10" flood-opacity=".10"/></filter>
 <linearGradient id="g1" x1="0" x2="1"><stop offset="0" stop-color="#0ea5b7"/><stop offset="1" stop-color="#7c6cf2"/></linearGradient>
 <pattern id="dots" width="12" height="12" patternUnits="userSpaceOnUse"><circle cx="3" cy="3" r="2" fill="#80cbb7" opacity=".8"/></pattern>
 <pattern id="dry" width="12" height="12" patternUnits="userSpaceOnUse"><path d="M0 12L12 0" stroke="#d0ad67" stroke-width="3" opacity=".55"/></pattern>
</defs>
<rect x="0" y="0" width="900" height="450" rx="24" fill="#f7fbfd"/>
<text x="40" y="45" font-family="Arial" font-size="24" font-weight="800" fill="#183247">Evolución del índice MIDAS</text><line x1="100" y1="390.0" x2="800" y2="390.0" stroke="#dbe7ef" stroke-width="1"/><text x="88" y="395.0" text-anchor="end" font-family="Arial" font-size="12" fill="#62788a">0</text><line x1="100" y1="340.0" x2="800" y2="340.0" stroke="#dbe7ef" stroke-width="1"/><text x="88" y="345.0" text-anchor="end" font-family="Arial" font-size="12" fill="#62788a">5</text><line x1="100" y1="290.0" x2="800" y2="290.0" stroke="#dbe7ef" stroke-width="1"/><text x="88" y="295.0" text-anchor="end" font-family="Arial" font-size="12" fill="#62788a">10</text><line x1="100" y1="240.0" x2="800" y2="240.0" stroke="#dbe7ef" stroke-width="1"/><text x="88" y="245.0" text-anchor="end" font-family="Arial" font-size="12" fill="#62788a">15</text><line x1="100" y1="190.0" x2="800" y2="190.0" stroke="#dbe7ef" stroke-width="1"/><text x="88" y="195.0" text-anchor="end" font-family="Arial" font-size="12" fill="#62788a">20</text><line x1="100" y1="140.0" x2="800" y2="140.0" stroke="#dbe7ef" stroke-width="1"/><text x="88" y="145.0" text-anchor="end" font-family="Arial" font-size="12" fill="#62788a">25</text><line x1="100" y1="90.0" x2="800" y2="90.0" stroke="#dbe7ef" stroke-width="1"/><text x="88" y="95.0" text-anchor="end" font-family="Arial" font-size="12" fill="#62788a">30</text><line x1="100" y1="90" x2="100" y2="390" stroke="#9fb1bf"/><line x1="100" y1="390" x2="800" y2="390" stroke="#9fb1bf"/><text transform="translate(40,240.0) rotate(-90)" text-anchor="middle" font-family="Arial" font-size="13" fill="#62788a">Índice MIDAS</text><polyline points="100.0,150.0 450.0,370.0 800.0,380.0" fill="none" stroke="#0ea5b7" stroke-width="4" stroke-linecap="round"/><circle cx="100.0" cy="150.0" r="5" fill="#fff" stroke="#0ea5b7" stroke-width="3"/><circle cx="450.0" cy="370.0" r="5" fill="#fff" stroke="#0ea5b7" stroke-width="3"/><circle cx="800.0" cy="380.0" r="5" fill="#fff" stroke="#0ea5b7" stroke-width="3"/><line x1="585" y1="60" x2="615" y2="60" stroke="#0ea5b7" stroke-width="4"/><text x="625" y="65" font-family="Arial" font-size="12" fill="#62788a">TA</text><polyline points="100.0,150.0 450.0,320.0 800.0,330.0" fill="none" stroke="#7c6cf2" stroke-width="4" stroke-linecap="round"/><circle cx="100.0" cy="150.0" r="5" fill="#fff" stroke="#7c6cf2" stroke-width="3"/><circle cx="450.0" cy="320.0" r="5" fill="#fff" stroke="#7c6cf2" stroke-width="3"/><circle cx="800.0" cy="330.0" r="5" fill="#fff" stroke="#7c6cf2" stroke-width="3"/><line x1="585" y1="82" x2="615" y2="82" stroke="#7c6cf2" stroke-width="4"/><text x="625" y="87" font-family="Arial" font-size="12" fill="#62788a">RMA</text><polyline points="100.0,150.0 450.0,350.0 800.0,320.0" fill="none" stroke="#21a87a" stroke-width="4" stroke-linecap="round"/><circle cx="100.0" cy="150.0" r="5" fill="#fff" stroke="#21a87a" stroke-width="3"/><circle cx="450.0" cy="350.0" r="5" fill="#fff" stroke="#21a87a" stroke-width="3"/><circle cx="800.0" cy="320.0" r="5" fill="#fff" stroke="#21a87a" stroke-width="3"/><line x1="585" y1="104" x2="615" y2="104" stroke="#21a87a" stroke-width="4"/><text x="625" y="109" font-family="Arial" font-size="12" fill="#62788a">SMA</text><polyline points="100.0,150.0 450.0,310.0 800.0,320.0" fill="none" stroke="#e5a321" stroke-width="4" stroke-linecap="round"/><circle cx="100.0" cy="150.0" r="5" fill="#fff" stroke="#e5a321" stroke-width="3"/><circle cx="450.0" cy="310.0" r="5" fill="#fff" stroke="#e5a321" stroke-width="3"/><circle cx="800.0" cy="320.0" r="5" fill="#fff" stroke="#e5a321" stroke-width="3"/><line x1="585" y1="126" x2="615" y2="126" stroke="#e5a321" stroke-width="4"/><text x="625" y="131" font-family="Arial" font-size="12" fill="#62788a">R</text><text x="100.0" y="418" text-anchor="middle" font-family="Arial" font-size="12" fill="#62788a">Inicio</text><text x="450.0" y="418" text-anchor="middle" font-family="Arial" font-size="12" fill="#62788a">T1</text><text x="800.0" y="418" text-anchor="middle" font-family="Arial" font-size="12" fill="#62788a">T2</text>
</svg>